<svg
    xmlns="http://www.w3.org/2000/svg"
    viewBox="0 0 44 44"
    id="vector">
    <path
        id="path_2"
        d="M 18 2.5 C 14.727 2.5 11.537 3.537 8.889 5.46 C 6.242 7.384 4.27 10.098 3.259 13.21 C 2.247 16.323 2.247 19.677 3.259 22.79 C 4.27 25.902 6.242 28.616 8.889 30.54 C 11.537 32.463 14.727 33.5 18 33.5 C 21.273 33.5 24.463 32.463 27.111 30.54 C 29.758 28.616 31.73 25.902 32.741 22.79 C 33.753 19.677 33.753 16.323 32.741 13.21 C 31.73 10.098 29.758 7.384 27.111 5.46 C 24.463 3.537 21.273 2.5 18 2.5 Z"
        fill="none"
        stroke="#000000"
        stroke-width="5"
        stroke-miterlimit="10"/>
    <path
        id="path_3"
        d="M 30.2 30.2 L 40.9 40.9"
        fill="none"
        stroke="#000000"
        stroke-width="8"
        stroke-linecap="round"
        stroke-miterlimit="10"/>
    <path
        id="path_4"
        d="M 13.9 9.7 C 15.854 8.976 17.984 8.871 20 9.4 C 21.376 9.831 22.643 10.555 23.713 11.521 C 24.783 12.488 25.631 13.675 26.2 15"
        fill="none"
        stroke="#000000"
        stroke-width="4"
        stroke-linecap="round"
        stroke-miterlimit="10"/>
</svg>
