<svg
    xmlns="http://www.w3.org/2000/svg"
    viewBox="0 0 64 64"
    id="vector">
    <path
        id="path"
        d="M 20.13 16.5 C 21.081 16.054 22.137 15.883 23.18 16.007 C 24.223 16.13 25.21 16.544 26.03 17.2 L 39.62 28.42 L 39.88 28.69 C 39.891 28.7 39.905 28.705 39.92 28.705 C 39.935 28.705 39.949 28.7 39.96 28.69 L 39.96 17.41 C 42.31 14.76 45.27 16.41 45.27 18.71 L 45.27 46.63 C 43 49.28 40 47.63 40 45.33 L 40 35.33 C 39.989 35.32 39.975 35.315 39.96 35.315 C 39.945 35.315 39.931 35.32 39.92 35.33 L 39.66 35.6 L 26 46.82 C 25.02 47.617 23.793 48.052 22.53 48.05 C 21.691 48.051 20.862 47.87 20.1 47.52 C 19.277 47.155 18.575 46.561 18.079 45.81 C 17.583 45.059 17.313 44.18 17.3 43.28 L 17.3 20.82 C 17.3 19.903 17.567 19.005 18.07 18.238 C 18.573 17.47 19.289 16.866 20.13 16.5 Z"
        fill="#000000"
        stroke-width="1"/>
</svg>
